/* XPM */
static char *result[] = {
/* columns rows colors chars-per-pixel */
"100 100 60 1 ",
"  c #1D2A38",
". c #3F2926",
"X c #35292B",
"o c #3E2E2D",
"O c #3E302F",
"+ c #242B36",
"@ c #2C2D35",
"# c #232E3A",
"$ c #302F35",
"% c #3C2F30",
"& c #2D3037",
"* c #24303C",
"= c #2C333B",
"- c #373336",
"; c #3C3334",
": c #34363C",
"> c #3A3639",
", c #34383E",
"< c #3C383A",
"1 c #452A25",
"2 c #4A2C24",
"3 c #432D2A",
"4 c #492F29",
"5 c #502F25",
"6 c #4E3027",
"7 c #44312D",
"8 c #4D332C",
"9 c #533126",
"0 c #5A3426",
"q c #51342C",
"w c #5A3629",
"e c #54382E",
"r c #5B382A",
"t c #433533",
"y c #4B3631",
"u c #443836",
"i c #4C3832",
"p c #413738",
"a c #413838",
"s c #4C3D3A",
"d c #503730",
"f c #503830",
"g c #5A3D32",
"h c #513E39",
"j c #603828",
"k c #4E413E",
"l c #5C4036",
"z c #52413D",
"x c #5A443D",
"c c #303840",
"v c #3A3C41",
"b c #413E40",
"n c #434144",
"m c #4C4343",
"M c #514543",
"N c #564846",
"B c #5B4944",
"V c #554B4B",
"C c #584E4C",
"Z c #58504F",
/* pixels */
"fu:3oct4c#+4452occ:f<<ifffrweieieirw999868eie<,iherrerrerridiieeiefieiiieiej0k<<iMMfe8iejfkZZxjeejri",
"fto13tt;%&&;tt1occ<a<,fffffreeieiufeqq05968eiuuiqereerrieereieiiay68ie666669ei:;ezkakeferfzzzzifeeer",
"e81118>-1-::::1occc:c:yqdefiuhhfu,u8ydrq96qeeieyieyiirreiereiiii:O18ie211..22i<<ieu:ufffffiifu,uffrj",
"i88;:>:-1%:t-:3ocpy884414wu<<azhiy67<sMMzqiiiey<ui<uerriuueu<,<,cu0uu1O:-<<8eiiieie36reu;ku<k8uifffe",
"eyu----71.-t>:4tcuyttt14558<:vnuui66psmzzqieiee<uiu<ueeeuui<,c,,,aeaX1-ccc<ue6fiuie2ee6uuii<kz8e6fuu",
"ia:32254221:ccup:uu::>995224>ccc<iiiddfyideierreieiu,yidrre<,cui:<i<;2-ccc,i616u,uife616irrezNi22e;,",
"eiu8590087::<u<:ctquut8q9qtpyiu,,<ueefefhzkzirrezz88uideei<,c,<iuiiiy6yu3-:36eiiuiifee6y<29rlz0e8fiu",
"iiuy8err8t::<up::t9dyueuufu<deup<<ueifdfkVMzerrezkqqhrqeei,cc,<eiyfff88t3-:o3ifffiii00ua<69je0je8fff",
"iuc,c,ew98y:c:yt=348<<iu<iiieu,ui8ffieiezCzerjrqfffffwrrre,,cc<i:<ff61-c::cc<fzef<<i2.<aieejjjje66ee",
"euuuuufip;;t-cy4.14<auyyuiefeiu<p48iuueihzigxleref6ffrlxle,,=*>iuifu<O;uu<uu7228f<<ie6,affeerjj0e8ei",
"yyffiyyu>:<8tcp421;cudfhif8eeey<;19i<ufeedfzVkerfi6fefzNld,::&;deiu<c:ueiefe6213u<<iee<affeeejjeffie",
",affu,:>4y89tcc%2-:ct9dhMq98<,,u629riierrddzNkee;>irwe8zeu,<i7ii2O,,<iie25r966;:,,<i628ifii8eeer0eei",
"carfia,>4541tc;72tpay99hhqq8y<,<t19eeerrriellieeytirrrf8eyuydif698<::ui826ee8;<<,<ii22e86eeieeeee8ff",
",uriyfa<8122%:yqqddq8488iiffrd,,;18idrrrrderreerlffereiliiyfdd629ei<,cu88efe<:i<caif62i618ieiejef6ef",
"uu<,pyyu>:;1%cyt-dwq5y<ui<af9q8i88iereeediuueeeeffferezVzy,uiif6ey:uktfe88f88i<:c,<ii7<O26ieeeeef66f",
"88p<puppp:-4t:ytcpy5tt<yiaufu78q8eefrqqeikuueuueeqerrqzzk<,uiuidei<uuu7kik8eku,ccc<ie7a76eieeeier9ef",
"9888u:c>8;<eu>8tcc<i<>yqqddi<<d6668fk66ekkkff<<0rewrl8kkO::uk&tljrk<cc7u:u66;cc:::-k128l8lejjjfejjef",
"qt>4133o-:>988qpcc<iiy444<uduidfef88;7kzzzfff<<eqq9666909kt84kk267-7ackek8lei:<t.--2686e66rjj0fre<fj",
"ua<7223o---7tyyac,ue82227;aueeiik28kuufzk5fffuufqqq87kl00566kt1653ca-ckree6j7:<tO-:ok686660jreejrukj",
"caq921--121:c:yp:uif2224ddp,eri<-16ff666658fffejeil;:t6zlklk4:;l0kcccc36lejjkc:cccccu699l80jeejj0f9j",
",,<y58>>8t-u<c<uiauf2226qfu,dy<c-6668f86ee8e8fferrqk7izzz8k6kkOa687Ooo44-kee8uuuautu7e9e88ejrrjrefee",
"<,,t8d<:up<tpa<uru<u648ehdu<iucc-66lfik88fk86efferqzzqkZze8l68a:z8862226&Olukffe666zleeek8ejjjreeeff",
"y<:34i>ccuu,urrreiu,uq6hMdffricc-1kzzu:ik8e88ffffqfy68kZlrkz6za:e0l6612.:uk-Off8266l86ee6zkfjrfr0ffe",
"fya89f<,aifuuiedffyuiyqfhhq454%336zku:ci8ueeffffiiuil8llkkkz86ku66366223#;8uu8u-O;t466z66kzeeeffefff",
"ffffff<<yiffp:siyifhffdfdq82222166ez---kt-ejeiff88,aekerO-6f8if821.633..#-8ll8-:::az668e6ffffff8efff",
"98ffffiu<yre<vbm<uhMhfffq4685225619reek8k8ejju<8ek,a88ee<<kfk-u823-::-66&O8kzel78k7l8z6zeffffff61fff",
"qqfq8qdy,ueqypmnc<uVhypfe98qhhhfz26eef6eiufjjiu67<c;e8fr<,uuk,<f2Oc<<ckz,u6kl6el8eeeff886effeff688ff",
"iiq8968u,uqq48mnc,vmhu<ireiiMmMh6kl6f8l8t:keje86uccu68ejuccu8,<82O,uu,7u,7e8f8eejjeee6k620rf8fffieie",
"<ae42221yiq99y<v,uddddifrri<sihdk<uff8freu8ejre6;cca6e6ff<:<i:c<2Ocuz74kk6z6z660juir62k6e0jr66f82fff",
"<u884246qyu888>:<rw4qiufrjd;iiuitc<ifffeeefeje8ku<ca6eefiu<ii<::.O:u8Ok626l6866ejiuj968e6ejj66f66uuu",
"ffffed899<<idu<<er09du:aej08ducut:c:ffffffe6jekzzk:<eiie:<ffffu:..:u7c7l6626ez69jfejeff228ejfffficcc",
"<uffddqq8<,iu<cpq9q90fiier09ducuic:ifffzk8ukjzzku-7kieeriufee<::7ku67ule86z6666eeeeeffre6eejefffyu<c",
"cu8kke6zza:8acc;6666e9uu89067u<uu<iiiiukke<<0zkf<:k8f8ejeffrf&:<k6e62frrffff828f8f86zleeffejekzeiuaa",
"c<8-Oje86a:k<ccO698eek:::kreaak66fficcci8k<<feffu:ie6fejeffft+$fffjeffr0ffffffff6el668e8f8rjelZzi,ai",
"uuk78jrl-uu673uul69eezuuukleuk8Ouf8t:-Ofi<:<i88fi<<t8uierefef<ull6e8ffrjlkzl868e6e86888lfkle8kzuaO7f",
"ff88zjje-u62222zl69re6eee88e86la;f88:O28ucc<e88eei:uf:<frrferkk88e68fere8zz8628868e6e6k8ikkfef9uu27i",
"fff<al9966662126800leere8fe666666668,O18ucc<f6e88k:<f:<ffee9lk8e8k6lljl6kef22286.68l86l8ffkefej0eeuc",
"ffeiu6rre77k6226k9886zuuuee6e8e6e8e8k11t;O<<<k8668uieiifffkkifie6ke86e6l8ee566f868866e6kef7ukfreef;c",
"eerfk8ee8O-lz6l6z6l666,-;erlfiffk6e8r61;;18i:ue68fferefffzkzff8el8z6z6k6fej0eeffl18le66zffu:t8feffac",
"fff<--z6lk896l9k-kee66k8kr0eu<f<Oz8k<u8ii8fucufefffeffffe8fkff6166666za<fzzlef88266686668fii<u8kff<c",
"fffu-Oue4860l666Ok9je8l7uej0iu8u;uk8<ifffi67O;ieeeieeuaufef88f66f8e66lu7tlzlfff86267k686286kuuf8ffuu",
"f8ff626kl6664ll8529jeela-kejffefu,<8fffffe211;<eeieik:ccf0f62efi888e6886600eefffk2k,Olz66l92f8ff8eie",
"j9ef62zzl600el8860922e143ffef8ef8k<<:ufiff868<<eu<8e8:<uejr928668kl66e666lzeff88692.886z6lzkl86ziiei",
"re6u32zzelrje88ll9026888eefeekzf88;c<u6ee8feiuaeu:kiu:<ue0j96f76688e8ke668zieezll226668646zz8k88ieie",
"fff:<fferlej0600lj9266z68k9jezZz82O,k218618fffe0u,iaccccuej0fff826f66ff86ejerjBk821866z216z6z6elieie",
"09k<,aulxz8j0kl666e6l886erreezza<O<,f86e86eeieeeu:iacc<azejeffff8ff6eff8eee8fezz221l8l66466kkeeeeiei",
"jef<:cukkze9l86l6l66l828e0eleel;<::,kikiiiefee8fu<iu<<uie6jefzz688k66fkek8e8ffe9226684kkk6kzl8eeieie",
"69jfu:ufkl0l86661kk66666k8888ejref<:8;-yieifi22ieifiiiieie0elNke22eeff8f6l826f0j0e828k-&-76k4u:ueiei",
"99rlku8llejk3u8u<866lz68l8kOk6erlaat88u8zkeef628fe888flkeeeeezk;16f68efffff68feeee626iO<,ikkzio8ifua",
"6ek8868fr0jfu,kucu6ekke8k6u-7le87:ue666elzgrf63fiy8698kklrf8ffi<.6f65jrf8fff88efei62682O<8zVi616efa,",
"6e688z8lffffuc3u,i00zk008lz869666uz6rr668z0j0u;8u<ie6fezfff8e0e08fl8ejj028826kffie816i8iirlkz2212e<,",
"66kuuOk9e6e6uu8tO7696leek6k666et3ze8r6e88;ej0ktkuuie8f888fukeereff889ej068f666efei868f6yu6ikze63O<<c",
"l88-c,l96666eff6122268f868ff6ek;a88698lfuciejeefiiei8i86eu:uleieffe268rrffei628ffieii82O:3ikk8e<c,,,",
"k8k,-kejee822fl8888888fu-kff8e86ueaa688eeiieje62O<it<ieeeiuiiiiffe0e8krreffe88866eieei8iy8fka;17uuiu",
"8lkauee0e8866f8iifeffffu;688kkukz8a:9efefuie0e617<ek<ieee8feiuie8erfffejfzff868868eiiiief88uuO28uuie",
"ekxk86666ee8kff<cfjfffff826kkn:u6l<-erffu:ufe2126f0rffej96f6k:<86ef8efrjekkz618e6eie<:iie2Ockii<ccai",
"zzkb<-6e6leezak6uejru<8ia66kkb&keekt9e6fz6zl88886eeeeerj088ey:<f6el6eeeeffk6229refff<<eee8uc:<<<a,ur",
"ekkv,<766zej8-3ki9jjiuku-uuukk-6r88e66k8ej66k88ukkf88eeje8tkic<e6e8kej88fe9626ffffffi<998fi<:cc<<,ir",
"z68-<kfe0eejef8u-kejfff8k-::kz8zk8lff<-ue6668ek:akkek-ujeicuk:uf668l8l8leejj0f<<f8fff82126eraccc,cui",
"l8k786u<u88ee8eltkejefffzuuOk6l88e8efuc88e666u-:vb8k<:ueficu7:<f86k8e8;a8eeeef3.6e8<i8221eee<cc-Ouii",
"88f866<ccu6lke0ef8ej6lze6k88l4keeeejeu-kk79ee;c-,<k;::a6kuc<i:uf88k68fOO8ffff82268t:<t2228iia,c3.yii",
"k6ffff<ccO8kk6ee6kejezzzu-u666288669je8ei:f08<,8688u:u8k;:c,<ii867-u8f6129je622216icc;12826iiacO3<ue",
"<ieee8OOO36kkff8666eelzk<,O667Oau66ejrffk;88e-c;;u<u;6687u;::iuu..O6862216e66567o;<cc:12e6626OcO3uue",
"cuje8k212218eff62226k7k<c:u6lacc<466j9k888kl6;:::c:<8k66663u<f<:.226221126f25rei,::::-269i622Ocuieii",
"cuffk<80e;;68kk68O-la:<,,z668uccc:uewriav:iu>o11-,uu,:p5t:+-8fu:112222oo16iffq24uyii4.2568k54t::;2;,",
"c<f87<ife<<88e6eeutea:-:-ez7l7-::<drwrf::<yyp;o%;ai<,c>9u>@-uf<:1.X752-:4yuu;t86if8i21266z4lk-cc:O;a",
"cuf9ff<<ju-kff66666j7-8O<uu:7lz-:drjjru:pd958;ccaqiucc>5qifu<ia:1X t42-:i<=,,,ufi66f226kl8k8:ccc:,ue",
"c<kkke7kf888622226e9k366aaauk6z6yq0rrddyp<udq>ccp8<ua<:qqereeip:.o*t62-:,,c,,,uf2Ot9l86wwkk6<ccOOuii",
"c<ekkeeef68f82226666k36ku-ue7k6895eruut4t:yiu<ccp8;<uaufeerrryauO>,u8o;<,,>;-,t66-alqq9w0kk6;--o3iiu",
"c<ff8e0096e8fffi8le6;-8O-k8k-<8ld5qu:::3%:uuccc,py9t,uffffiiu,ur>c,ut,uu,<i1O,36i<-i8llw55kll11O<iac",
"cufre6ef699effei-k7O&&kkuku<,,-uy<<<u::1X#tto-:tyq27,uua<aihm,af<,,,,,uy,,>;:,-Ofiuf86666kk5656kii<c",
":ufrezzezeefff8t<uOc=&7ukeac<--uucc<fp:3X#t83-;tty47<upcc<usm<ui>:,,,<tt::><:&,>qyiik4166642lz46fiac",
"zieezNzeea<ifffkk<cca7:c-ka:78.6tccvyp:1o:uy:uu:::88y<ccc,,aiif826y:<i67:%388.>-2--ka-12256lkl28ffac",
"8efkzzzi;,:i88ui6ttukk,c,bkO666a>c<pp::34tducuia<:4yauaau<ayyaue24i<,u7t,-Oi88,;677l7.126668O72lf2;,",
"i8kkke8k<c<u6.-<k1466t-<-k8k78z-c:ty:c:y88du:sii<:tt<uiyifufi<a847y<,,t7,,:iey<<k7k63.12zl7k<<tke1Oc",
"eu<kzeeiu<c,O1:c:-a6O-3k6eO::Oza:114ypvyu:ufusmv:c:pifu,yu<ufiii>:,uyu66iid8qiiu,-,,,O1226t:uu-761-c",
"iy<iefieiua,;2u-c-O67uktt6k-:-6ut224uapappaudhsaa<::aapaui;uff87>,,ui<32ffq9fddtcc,<,:O364ack7c-uO:=",
"fieffeeieeu,u86Oc3191l6a<u67<O265558>au,<y<<yddyyy::,:<qee9dff41,=,uu,O3i6666ddt:c-laccaklu:6l,ccccc",
"fifie0eert<uie8uc:t628-OO-ul4k66422q8;<caf<c:si<t13tu3488898ff61:,,uu,,:>tff668813uea:O468674lkO<u<c",
"eeeiijeejkaeeeef<:<66kO33:-66864t3454tc-;a,:;ppc-33484otie8yud98;,,<<,,:-76u7267o7ku<O2687k6k66-,a<c",
"irr<ujeejxNjjrrrz--665111:O2226>cct56pc13cc-q;cc,,,-1:ccuii<,yfii;ccccc-11.:O12Ocuu,u826k-<f866;ccc,",
"<ir<urrergrrfaaskkk653O--::-16f8y7%p4tc;%3%7;upuuuuy6<ccuy<,:4o@<,ccc,-3622ui667317c;3O-:c:<<u6kuuii",
"<sg<areej0ery<cvkkk664;-----;8f625t;4t>cX211<ufdyuuii<,cuy,c:oX+=,cccc-3iO38ife6123:OO:cc---:<uuyee0",
"ikVMzfeeju<ifu<a6kl666621126<<f2224d984c%2115dff<,,<efucuu,cc:%1:ccccc,,c,<iffi6213ccccc:k81-cc-aree",
"dizzhruue8o67<,<6ll267uo167-&=<31%7q99y,p24qqhhfy<,<iu<uu<uupv:%,-O&cc<aO:,<<ae8X2o:cc<OO862-,u,<ree",
"yieeeeu<f6113::;74656k,O26;:#*,o3ct488u<pdy8dhMdey>ui<<f<,uyu:::c-3;:<u62O,,,,fi:.3=c<it78t2-akuuglz",
":urri<ui842212yu:762lk&O6-;8,=,o3ctq5t,cpy4222qd9888i<<i<,,,<888:,:u6.7e1O,ua:kek2ocuu,,::u8ffe8zNZZ",
"uerriuiie7317;;;Oklk4O:t6ty8u<,O7c75q;c<ppt3554dihqqi,<a<a<<:y88:-O76168O;uia,7ie26O36OOO<;;kf8ubzNZ",
"eereieiida<upc,;2qbbi7>t668iiucui,t96t<uu,,<reiezMh8u<,,uff<<uiu<;11126u<aiiu:yiiee.1..228u:iffu<izZ",
"rreeeruadda<v,uidwhvt8y898t<yucfey88887<<i,<eu<ihifu<uiufu<c<iu<ua::;efiyife6..6eiy-<:<O8fiyiff36rxZ",
"jrreeruuyupv:%47pdyct9qy787ayy<q9eyt8q8aui<<iuuiqffyuiffyauuaiac;<cc;i68euufe212ieuccccaf688uif66rxZ",
"rjreiffedpcco113vttct6qt:8qdq8fq96;>8qffei<<eieifffiiief<<redfa:,ccc<i66ea:iie26fii:cccae26k<<ifffzZ",
"eeerrffedypup;t8t4474q54yydip<<y924ufdffeiiyredezkhu<yffiieuaiiuu<c,c,ueekyief;ufa<utocO66eeiiff0jrg",
"eeerefyudqq4pcpt7346884q9qqy;<auf666666fieiereiiiky:,uiuifea,iiuu;<<<c;uie8uyf<u8<<uOO:-O8iiiiit59rj",
"irreff<<y422%ccccc>6;:4qdq59qff<>i21112fffeiieddhi,c,uu,ueju<iacca6fucc<iii:<ieii<cc,cc,:uieiuco119j",
"ieeefeuu0y%73333tvc>uu954458p<<air51668q8fdeeideu>,,,<<uieeia<uyia;iiuuueeei<aiii<cc<uuuuieieu,O6226",
"eeieduyyeu<u7337u:=cu8942899t::ufrqqhffdq8diuiiia<,<<,aeqffia<uffu<iiiuiieeia<iffa<<uifffiiiia<u62..",
"rreri,,,,au,,,:::#*cui895drwq8ddfesNCzf955qu<uu,aiiiiierffea<ya<iiiiu,,<ifi<aiiffiiiifffi<;i<<iif2O:",
"uereuc<uuu<,-.ooo&=<yit79quu88fpufhhzhfqqqedayfa<ueeiaureef<,<aaa<;aaiiiffi:arfiaii;ifffi,<<a7666-:,",
"cureu,ufi<ccO2111-<dfu,tqdp:8qd<<ifdfffddfrrfeff<<rri<pfiffaccay<cccajrrefi:ujeucuu,afffi<ccu612.,c,"
};
