/* XPM */
static char *result[] = {
/* columns rows colors chars-per-pixel */
"100 100 71 1 ",
"  c #22190A",
". c #2A1C0E",
"X c #301F0F",
"o c #2B1D12",
"O c #321D16",
"+ c #351E19",
"@ c #3B1F1C",
"# c #2B210F",
"$ c #2E2215",
"% c #312315",
"& c #3D2516",
"* c #34221A",
"= c #3A231D",
"- c #36281C",
"; c #3B291E",
": c #3C2521",
"> c #372920",
", c #3D2A22",
"< c #3C3025",
"1 c #3F322A",
"2 c #42261B",
"3 c #43291C",
"4 c #4A2B1C",
"5 c #522E1F",
"6 c #40311D",
"7 c #412221",
"8 c #482621",
"9 c #452B25",
"0 c #4B2C24",
"q c #452D2B",
"w c #492F2A",
"e c #532E21",
"r c #433325",
"t c #4D3126",
"y c #46322B",
"u c #49322A",
"i c #46392A",
"p c #4D3A2D",
"a c #543224",
"s c #583323",
"d c #523629",
"f c #583628",
"g c #543B2D",
"h c #583B2B",
"j c #493331",
"k c #453C33",
"l c #4C3B33",
"z c #523D32",
"x c #583F30",
"c c #513D39",
"v c #50402D",
"b c #5C432E",
"n c #5F4A2E",
"m c #4E4136",
"M c #4B4238",
"N c #554335",
"B c #584534",
"V c #564835",
"C c #5C4A35",
"Z c #544639",
"A c #58463A",
"S c #574838",
"D c #594938",
"F c #66472E",
"G c #634B34",
"H c #624F38",
"J c #675137",
"K c #695035",
"L c #645139",
"P c #6C5538",
"I c #584840",
/* pixels */
"MMMMMMMlatuyuuNDSMMDSDDDDDDZmMMSDLDDDguN<  .$O$O:77@*O$O.  <NuzZSDHDNMMMVSSSVDDDSmmVDNuuuyaspkMMMMMM",
"kMMMMVMNhgpptdNSSNNgDNMmNvBZMVMVSbCVDpul,  o$*=::79:>=+*o  >lwgDSnbVVMMSZNvNmMSNgNMVDNapppggNZSMMMMk",
"MMSNVCZZNNVNgavNNNh5gmkkiaukmVCNv5bnNiyq- o*+@7wuwuw07=+*o >y9pNCb5gVVVvkuaiMkmgahNVDvadNNNNZZVCVVMM",
"MMV>$%%%$--$%&;-%%%+;-$$$#.$$$%%$##%$$.o  +=@:7qpNBlw7@=>O  ..$$%X#$$-#$$$#$$$-;=%$$=;-%%--$$$%$-MMM",
"MMN$ #oo%%*%*=-*ooO@=-$o$$%X%Oooo$$$$.o.  =7999wgZSgt9797* .o.oO$O$%oo.%X%$O#%*=+O..%=;*%**$.O..$VMM",
"MMN%o=770uuuuu0977@79wuyy9ea0929uy0uu977% ;w9t0ehDDha09yu> O:79quwu9929tsayuy009@77790yyu0uu77@o$NMM",
"MZm-+779y97uuuu997729qqy0ut5t999wu97u77+o yNxlitgDSztllNNy O+27u790u999t5ey0u0y977290yu0u99wq77O-SmM",
"MNv;+799&===;;;;:+++=;>>;;340tuuy099097+o iDSly9pDDp9ylSDi o+:9099ywtwu033;;;;;=++=;;;;;=+=:997+-vVM",
"Hba=+793                   .4auquu0yq09*. vDDu=*iDDi+=uZCv .-9quuu9y0ya4                    :97@=sbH",
"DBg;+703 .ooooo.ooo ooo     30uw9uu9999=>,mDDu:*iCCi*7pDDm<:>79790uu0uu3     .oooo.ooooooo  307+-gND",
"NNN>+782 .$$$ooooooO$o$o   $;uq909uu0000iMZSNu9*pLHi*9pxVVMp0000wuq09q93.   .ooOOoooooooo$o @87+;NNN",
"jzN:+77+ oo       oO      $9997777uCJKKGGSSv9779vHHN9777gSSCKKKJDp77729y,$      O.       oo @77+;NNj",
"llM>@7:@ o   o    ..   ..%=979uhhgNDHJJJChhd9:9pNCCSp;=9dhhCJJJLDBhhdp099=*%.   o     o  $o >:7+>mlk",
"MMM>+7q: oo  o   o.    %=9079dHJPPHDDCGCxsseq=;NDSDDV,=uessxDCCNDHPPJCu77997*.   oo   o  o  :17+>MMM",
"VSN;*7,>        o.  O=7997wBGKPHLCDNfffBDAxz0->DCNSDD;=wzAADBfffNDHCHPKGBw799=@O   O        >77+;VSZ",
"ZZV;*@q>        .  O+7999wgHHGFCDSNxgssBAIczy9yCNgpNDy,ujxADBsfhxcDDCFGHHBu9q77@o  o        :17@>VZm",
"MMl-*79=          .:@7778ZHPCxshDDcjShsNAIpyuugCg:7uCluyyuIANshNjlASBsxCPHN977777.          =97+>MlM",
"Mld-*79;      $   $9997aGJHZDDBNDDMMNfsdcZp9=iDLg9qhLCp=9pZcdahDlZDDDxBDZHJFd77q9    o      =q7+-tzZ",
"DNd*O79;      o   >q987hFGAkNADDvCZmNhadgZj9$pCBp0wpCCl$9pZgaahNlZDBBDDNlBGGh790q-.  o      ;97O%dBD",
"IIZ$o79; oo      *1y87jwswjjxZSffDSNupBffDi9$vCuyy0uuDpO,pDfaDluNDNfaDZNjjjedq77qq>   o.  o ;97o%ZII",
"IIZ>O79= oo    .+797juww799uwupzBDDNNNDBxp,,lSN9ylly9BDl,9pxCDNxNDDNxjuwwq789upw7q9O.    oo 397O>MII",
"III,+79= oo.   o2997zB97=@7:@=9gBNDDNNDCB9*1ADB9yMMi7BCZ,-9xCDZNDDDxz9:+::=@7qNg2977o    oo ;97+,III",
"IIZ,+293 .$O   o7777bG;*O*o  O7wpDZNuzDDzu=,SSBulSNluBND,>9zDDzpZDDz07o. oO**=Cn7777o  oo*o =97+>III",
"ZZZ-O77= oOo  %=879hht:oo==O .o,upgfupgpu7=<Sp,,upgy;rpZ,*9upzi0ddpi7o  O==$$=thh879>$  o$. =7@O-ZDA",
"ZDD%o77+ ..  .3qqqdJd97O :9:o..=99eew0uu9@-qZr**;099**rSy>@9wu90eeq9*..O:7=oo77dJdqq97o     O=7O%VDS",
"MZN;+77+    O=777lAADd7+oo*qq9,$o70e79y09*iZDi99yuyy99iDZl*,0y97ee7o$9,qq-.o+7gDCDp977@o    +77+>SNM",
"NBg;+77+    O7777xHZlw9*. *wjwe=O@2299u9,*lSDp9w0y9uuupSZl*,yu0932=O*ewju* .+qupZDD7779O    +77@;gNm",
"Sve=+77+    *q779GHkq9w*  %qwwe8:***99uu>*vDDpww9uuyu9pDDp*,0y99***=4ewwq*  %w9qcCG777w*    +7@+&avS",
"SNg,*79=  .-9y7dGGDkczu:O O:::7999-**,u0,*vCHy:jujwqq,yDHv*,y99*%-9997::7o +7jlcMSGGe7qq-.  :8@@;gZD",
"ADM>O:0=  .4wqwgJAZMZZcw: o@*OO+;t9,;;,;;rVCv,,qqqqqq,9vCV<;-9;;9y0;=+++=o :wlZZMZDJxqq04.  :77O-ZAA",
"IIZ$o79=  .547xDDADDDDDlq..O7+  %5hNu:o <VCv$,qu977qyu,%vHD; $;uNh5.  +@OooqlDDDDDDDZx705.  ,97.$ZII",
"AZM>O7q9O*;097cDDAZDggduq=o.+::o.X;uxi>o-DHp%90o9plq%94$vDD-o;yzu3X o=:+.O*9upfxDZAZDz98u3-=qq7+-MZZ",
"ZZk-+@9qy0u970NZZIZDxttwq:O.::jO  o=upu;rCHv#-3%iSDi%3&$vDDi-ipi:o  oqq7oO:qwtdzDZIMSB770yuyq97+*kZD",
"ZlqoO777qu9777BDMMMDMlua0*O*1jjO    *yVCHCDi  $vSSSVv%  iDHnCVi%    ojq1OO=8eulMZZMkSD7779y077@ooqlD",
"DNl*O790au979zBZMMMMljwww7**7qk,. .O.-rpCHDi %iSbhhbVi% iCLNlr*.O. *<kq7O+:0uujlZMMZSDgq790a997O-lND",
"DDN:+@905tq7tDDDSMMkyuluw7@@@1kj,.OO.o$,uNCi#iDVgeedNDi$iCVi,$o.OOo:jkq*=78qjjuiklMZDDDu79ta097+-NZD",
"DDB$O@8wt097uDDZDMluuuBhsee9->ujq2o.+O .%0zNmNNuutuuuNNmNz9%  o+.%=qju>*90eehxiuylMSSSDu79w0q8@O*NSS",
"gxN=O79wu977tADDZlyuuupueft>,,,pcj*.@o  -uNBhzp*%%*%=pzhDNd%  O@ *uxj:,<,uhaplu0uulDSDDu779wq77+=NNh",
"shN9779uy779pDZANuuywwwwpNi-k1*lCI; +o  ,VNg5tq$#####,t5hND;. O@.;IDm%yk-iNpwqwyyupNNNDg979ww9779Dha",
"BDN97@9wu97gDCgipy0uywuzNZpqy,*lHP6   .1gadr=9dCnnnnnpq=yuagr    rPCl*,q9pSNzwuw9uuuugDDz87ww97@9NBB",
"DDA8777qw99cACdtu0pditlZDDz099>qcCyo o,lld9:>jBLLHJHHDj>,9djl,$ oqDly:9qwlADxcuiguuutdCAZ97wq7779BDZ",
"ZNZ87777q79xIAfeuyjDjzBANDl9:7j>:qqqo1Zjwq>:wDAIIIIAIDBy:=qwjA<.qjq:>q7:9gDDZZdpSluueaAIN97w87779NDA",
"jcB97qqqw99NADNxNNNDNcjdfDi-o*j7:qjjuy979q9yNNxwqqqqwxDxy9y989ykjqw::j+o*iBhdlzNDNcNBBZDA99wqqq78Zcl",
"dzN97qqqq79NDxNZZDDZDZjdddq+o$qwjjqjcq779ppgzpr++@+++yiNgpp9779cjjjwwj$.*9zaujZDSDDNZNxDx97qqqq7qBhw",
"sfD97777777NfalMDDSDDNMlq72@ $qzcjwq77:7uDCCu$        XuBCDu7777qjuzN9$.@279kMNNDNSSMlahc977@77@9Bhs",
"gzjjdlcdlw0fhBZZSpgfzMZp9=Oo&tzNzq=*9ugedDp9%  O+OOOO  O9gNg0gu7*=qcNxr&OO=qpNMBggzNSNxhf9wzggzpjcjj",
"klcZZSDDSgdaBSSSNpdfzMly;$o$ahDxu+oo9BCfti=O  O@7@77@O  o;itfCx9.o=uBNha$oO;yzMzfdpNSSABfddZDDZSNcll",
"jcZMmDMcDhaBAASNMZNDSx7%  *yBCDw+.o=5hNu;.   O@77@7777O   .=pNhe=o =uZCNy*  O9zDBDNMZSISBshZMZDmMZlj",
"qjcNSSggDBbNMMAZMmNfht=*=<yjzduq:OO-ggl-.   O7qw@OO=uq7O.   Ojzg=OO:wtglwq<-*=afhNMMMAMINbBDzgDNZlju",
"quyNNDgfDCDMMMSMMZBss4%9uZcu997q97+;Nlq.   .7qjZ2  ;Djq7.   .qzm>=79979ujcZu,+4ssvZMZMMMMCCDffDZxuuw",
"ywuBDSffDCCMMMZZMZhss4%;uZcjw92997*;mlqo   .7qcB;  -Zj87.   .qlN-*79979wjcIu9%4sshZMZZMkMDCDffDDBuqu",
"wuzMZSgzDbBNMMZZMNBhfd==><qjzzw97O%=ggj=    O79u;Oo;jq7O   .-pgd=OO7qudljy<=%=dfhBZMZZZZNBCDgvZZMcju",
"jlIkZAMNDgfNAAAZMZNDDz9O  *yBDSu@ o=5hNp*    O@727777@O   .=iDh5+o.@uDCBq$  %9zDDNNMNSIZBafDZMAZMZcq",
"kllZZADDDgtaBDSSNpufzMzu:$oOthSNu=oo0zCftu;%  O@@77@@O  O;itfCg9oo+uBNbt$o*=yzMzfdlNSDDxatgDCADZclck",
"lcjdlpdzpw0fhBZZNNgfzmZl9=%o&4NNc9=*7pgedDg9$ .O+OOOO  O9gDdegu9*>9cNz9&oO*qpZZcggvSZNBhf0ylggjjzljd",
"sfD97777779NhalMDSSSSSkjq77@.%ygcjuq7@72uDCNuo        O0CDDu@777qjyxzyo.7779ikZDDDNDMlahN77777779Bhs",
"wcxw7qqqq7qNBxZZDSDDDNlddp9O.Owwwqqjcq:7qpdgzpr++++@*rpcppg977qcjjjjqjO.OyjatlZSDDSDZNgDN97qqqq79Zzw",
"jxA97qqqq97ZDZBxzNNZBcjdfNp=o*j::wjjjyq9qu9yNSNwqq8qwNNxy9w97qyujqq:7j>o=uDfgjzNNBzNBBDNx99qqqq78Zxl",
"DDc97779w99xAAfeuwlNppNDDDz9:9j:>qjqo<cjwq>;qNDIIIIIZDNj;-qjjZ1oqqj>:q97ygDDDZpgZljudfAAN99q7777qxZD",
"DDc87779w79xACdwuuuguulNDSc9q:>ycC9o %<jle9=,jZJJHLJHDi=,9ajl>$ %qBlq>:qupDDNjuuguwwwdCAN97uq777qZDA",
"xAN9@78wu79zDCzpuuuuquwpBSp9y,*lHP;   .rgauy*qpbGFnnnpq=rdagr  . 6PHl*,y9pDNlwwuyuuutgCDz77099@78BBB",
"shZ87@9wu777jCNDNiuuuwwyuNi-k1$lID;.+O  ;DDh5u9$oo##$,w5gNC,. o* >IHl$yk*iNpuyu90upNDZDp979ww977qNhs",
"hNN=@79uu977uDDDSlyuuupdtfu,,<:pNj%.=O  %pBNhzi=%%*%*pghBBu*  O@.Opcp>,,,ugadguuyulNDDDu779ww97+=Nxx",
"DSN*.79uu0w7uDDNSMluuuBgss09=:uj9=O.+o  O9gNNNNptuuupNNmNz9O  O+oo@quu;*9e5agNuyylcZDDDu79ut097o%NZD",
"DSN-*790a092pDNDSMkljujjw8:*=qkj>.OO.o$>pBNi#vVNge5gBSi$vVVi,$o.OO :jkq:*:7ujjwjlMMSDDDu79tet97+-NZS",
"DNl*o779a0970jDDZMMMlyiww7*O:qk,o .Oo*ypDHDi %iVvfgbBy% iCCSp1-.O. o,kq:*+70uuilMMMZDBp979tt977O-lNS",
"Dcq$O@790y0779BSMMMDMlue5=O*qqjO    OrSDnLCi  $mSSDVv%  1CLnDDy%.   Oqj9O**eaulMSMkMZD7770u0777ooqcD",
"NNk*+79qyuy997xZMZADxtu092Oo:1jO  o=upp-iDCv$&3%iDSi-&&$vHCi;iii=o  Ojq@oO=wwttxSIZZDN799wwuq97O*kNS",
"ZZM-O@8q--3097xDAIADvhpuq+o.+7:o X3uzu;.-VHv$34*9pz,$t3*vHS-.>uzu3X o>:*.o+qpughSAADZx98t3--qq7O-kZI",
"IIZ$o7q:  #507cZSDSDDDDc,oo+@+  X5bBu,o -HHv*,qj777qyu,$vHS- %>yNh5X  O:Ooo,zDDDDSDDDc885.  =97o$ZII",
"AAZ;O79=  .00qqxJDNMZNcw:.o@*OO+;ty,;,;;-rVDvr;yqqqqq,9vDVr;;,;;9r0,+++@=o.:qcNZMZCHg9q94.  =97O-ZSD",
"DZg>+79=   =qw7aHGSMlzw:+ O7::7999=**,u9<*vCDi:qqjjqy;iDCg*;uw9*O-99q7:@7O O7wlzMSHGt9wq-. .=77+;gDS",
"Dha=+77+    -q778GLkq9w*  *qqwe8=**=99uu,*pDDp9wwuuqy9pDDp*,uu99***=8ewqw*  %w9qMHG877q-    O77+=shS",
"MNg;+77+    O7777BDZlt9*  *qjue=O@=399u9;*lZDpuyuquu0ypDDl*;u99392@O=0tjw*  +9ulMCx7777O    O:7+-gNm",
"MVN;+72+    o@7:qpNCBd7+o.>qq,9$o7ee79uu9*kZNp999y9y9yuDZy*,uu88ee:o$9,9q-oo=7jNCDp777@o    @@7+;SZM",
"VDC%o77+     .:jqqdPz7:Oo:>7$..*9qee0u9u9@=yNr-*90y3**rSy:@9quw9ee99*.oo:,;.O77hJdqq99o  .  +77o%DDS",
"ADZ-O:7= .Oo  o:878zgd=o$==O .o7izdduupgu9*,Sp<:ypzq=rpS,-9upppwdhlt:O. O@:oo:thx978:o  o$. +77O-ZAA",
"IIZ,+79; .OO   o7777hF=*OOo  o7wpNDNuzDDz9-9DANupSZzuNDZ,-9zDDziNZBp97o. o+O*=nB7777o  .Ooo :97+>III",
"III,+7q; .o.   o7977zB97=@=,==9lBNDDNNDCNy-,ZCv9iMMi7BCZ1=qBCDNNZDNNz9:=::@@:qNh77q7o    $o =97+>ZII",
"IIM>O77, oo  o  +997upu98qqwwuggBDSNBNDCgp9,pCB9ylkq0NDl,,phCDNxDDDBgptwuq980ypu7q7+o    oo ;97+>ZII",
"IIZ%o79; o  o$   =q097qdejjjxDZffDDNuzBshZp9*pCuu9q0uCp$9pDffDzuNDDffDDNjjwsdq79uy-   Oo o  >q@o%ZII",
"DNd*O:9;      o  o*y998gFGNcZZDDBDNlNgfdgSp,$gDCpuupCHp$,lZzaagNMNNBBZDZccGGf999u=.  oo     >,7+*dND",
"Zzt=+79=       o  $9977dGJHZDDhDDNMMNhaucIp9=iDLg99gCDp=9pZcushSlZDDBxZDZHJFd7790.          :9@@-tmZ",
"Mlk:+79:          o277778cHPChsgDDcjNhsBDAj9uulCp22pHlu9wuISbshNjlZDxsxCKHzq77772           :97*>iMM",
"MZN>+7q:        .  .+7799wxHJGFCSDNxffsBAIcpw9rDNdjDCy9upZIZBsshxZDDCFGJHxq9977@o. o        =97+,MSZ",
"SSV<+79:        o   O@:q99uxGGPJHCDNfsfDDDBzw-;CACDDD,-yhNAADfsfNDCCLPKGBw799,=o   o        >97*;NVV",
"MMM-+71>    oo   o.    O79979dCLPPHDDCCDzsseq;,NDDDDN>=wessxDCCBDHPPJCd77907O..  .o   o   o =q7+>MMM",
"klM-@7:> o        .o   .O*:79wuzhfBDHJJJGhhd7=9pNCDBg:=qdhdGJJJHCBhhhuq99;*O     .    o  oo =77+>Mll",
"jcN,*77+ .$       oO      O9r97727pDGKKKCSSg9779vLHv9779gDZCKKKKDu7777999%     .Oo       $o +7@@,Nlj",
"NNN>+782 .o$oooo$oo*$$o.   .39y999wt0000pMVNNu9*iLLp*9uNNSMp0090uu999yy9$     oo$$oo$oooo$. 207+-NSN",
"CBg;+7e2 .$ooooooo. oo.     3tu9uyuq979=:<mDDu:*iCHi*7uDDm<-=799wu000yt3     o.ooo..oo.ooo  207+;hCC",
"LB5&+79;                    4euuu9u0wu9*. vCDu=*yDSi*=uSDv o-9quwwuyyy54                   .;q7+-ebL",
"ZNg;@779;=+=;;;:>>++=;;;;;244tuyuu999q7O. iDNly9pSDp,ylSDi .*799990y0uu443;;;;;=O++:;;;-===,997+-vNM",
"MMN*+7990999uww9,7779uu0uu0su9999u97u77@$ rNNlluzDSgtllNxr $=@9u79yu99ytea0y0wu97:7qq0uuy790997O-NMM",
"MMN$.777uuuy0uqq7@@790uu0ueet9290y0uu777% >u0y0ahDDhatyyw9 O7799wuu092905e0uuyq97@7@9uuuuu0w777.%VMM",
"MMB% ooo%%*%*=@+ooO@=%%o$$%X%Ooo$$$o%$oo  =7970tzDDg00777+  ooo$O$o%O.o%%%$o$%=+@O.O%==*%%*oOoo $MMM",
"MMN-$$$$$--$%-&-$$%-&-$$#.$$$$%$#X%%$$#.  O:7:7qpxNl97:@@+ o$.$$$#.X$$$$##.$$$--=%%$-;-%%;-%$$$$-VMM",
"MMSVVCVVmVNBgsxNmNvsgNkkktykmVCVv5vCNp9y- o$O@79wwuwu7@**o >q9iNCbevVCVmMitikkNg5gNNNvsgvNVNZNDVCVMM",
"MMMMMMZMvgppuaNSSZNhNNZNNBvNMmZSVbnDDlup,  .**=,7q9:==*O.  >zuzDDnbCSZZmmvbNMZSNhNZSSNdtgpghMZVmMMMM",
"MMMMMMMksauyuuNSDMMDDDSDNSSSMMMZDLCDDvuN1   OO$O@7@>*$O$   <NulZSDLDmMMMSSDSDSDSDMMSSNuuyytelMMMMkMM"
};
